<svg width="51" height="40" viewBox="0 0 51 40" fill="none" xmlns="http://www.w3.org/2000/svg">
<path fill-rule="evenodd" clip-rule="evenodd" d="M19.0397 0H38.8007C41.2009 0 42.0409 1.98 40.6408 4.38L30.4603 21.98L23.9999 8.52H18.4996L6.91901 28.54H2.51877C0.118643 28.54 -0.721403 26.56 0.678673 24.16L12.1193 4.4C13.5194 2 16.6195 0.02 19.0397 0.02V0Z" fill="#F6F6F6" fill-opacity="0.65"/>
<path d="M31.4203 40H11.6593C9.25915 40 8.4191 38.02 9.81918 35.62L19.9997 18.02L26.4601 31.48H31.9604L43.541 11.46H47.9412C50.3414 11.46 51.1814 13.44 49.7813 15.84L38.3407 35.6C36.9406 38 33.8405 39.98 31.4203 39.98V40Z" fill="#F6F6F6" fill-opacity="0.65"/>
</svg>
