<svg width="84" height="8" viewBox="0 0 84 8" fill="none" xmlns="http://www.w3.org/2000/svg">
<path d="M0 0.357953V7.63297H2.62667C4.79456 7.63297 6.04991 6.29695 6.04991 3.97278C6.04991 1.68389 4.78447 0.357953 2.62667 0.357953H0ZM1.12932 1.38644H2.50063C4.00807 1.38644 4.90043 2.34434 4.90043 3.9879C4.90043 5.65667 4.02319 6.60449 2.50063 6.60449H1.12932V1.38644Z" fill="white"/>
<path d="M9.89463 7.73885C11.4979 7.73885 12.481 6.66499 12.481 4.8853C12.481 3.1157 11.4928 2.0368 9.89463 2.0368C8.2914 2.0368 7.30325 3.1157 7.30325 4.8853C7.30325 6.66499 8.28636 7.73885 9.89463 7.73885ZM9.89463 6.7759C8.95185 6.7759 8.42249 6.0852 8.42249 4.8853C8.42249 3.69549 8.95185 2.99975 9.89463 2.99975C10.8324 2.99975 11.3668 3.69549 11.3668 4.8853C11.3668 6.08016 10.8324 6.7759 9.89463 6.7759Z" fill="white"/>
<path d="M20.853 2.14268H19.7691L18.791 6.33224H18.7053L17.576 2.14268H16.5374L15.4081 6.33224H15.3275L14.3443 2.14268H13.2453L14.7578 7.63297H15.8719L17.0013 3.58961H17.087L18.2213 7.63297H19.3456L20.853 2.14268Z" fill="white"/>
<path d="M22.1013 7.63297H23.1853V4.42148C23.1853 3.56441 23.6945 3.03 24.4961 3.03C25.2977 3.03 25.6809 3.46862 25.6809 4.35089V7.63297H26.7648V4.07865C26.7648 2.77288 26.0892 2.0368 24.8641 2.0368C24.0373 2.0368 23.4928 2.40484 23.2256 3.01487H23.1449V2.14268H22.1013V7.63297Z" fill="white"/>
<path d="M28.4719 7.63297H29.5558V0H28.4719V7.63297Z" fill="white"/>
<path d="M33.6325 7.73885C35.2357 7.73885 36.2188 6.66499 36.2188 4.8853C36.2188 3.1157 35.2307 2.0368 33.6325 2.0368C32.0292 2.0368 31.0411 3.1157 31.0411 4.8853C31.0411 6.66499 32.0242 7.73885 33.6325 7.73885ZM33.6325 6.7759C32.6897 6.7759 32.1603 6.0852 32.1603 4.8853C32.1603 3.69549 32.6897 2.99975 33.6325 2.99975C34.5702 2.99975 35.1046 3.69549 35.1046 4.8853C35.1046 6.08016 34.5702 6.7759 33.6325 6.7759Z" fill="white"/>
<path d="M39.4484 6.81119C38.8586 6.81119 38.43 6.52382 38.43 6.02975C38.43 5.54575 38.7729 5.28863 39.5291 5.23822L40.8702 5.15251V5.61129C40.8702 6.29191 40.2652 6.81119 39.4484 6.81119ZM39.1712 7.72372C39.8921 7.72372 40.4921 7.41114 40.8198 6.86161H40.9055V7.63297H41.9491V3.88203C41.9491 2.72246 41.1727 2.0368 39.7963 2.0368C38.551 2.0368 37.6637 2.64179 37.5528 3.58457H38.6015C38.7225 3.19637 39.1409 2.97454 39.7459 2.97454C40.487 2.97454 40.8702 3.30224 40.8702 3.88203V4.35594L39.3829 4.44164C38.0771 4.52231 37.3411 5.09201 37.3411 6.08016C37.3411 7.08344 38.1124 7.72372 39.1712 7.72372Z" fill="white"/>
<path d="M45.6274 7.72372C46.3837 7.72372 47.0239 7.36577 47.3517 6.76582H47.4374V7.63297H48.4759V0H47.392V3.01487H47.3113C47.0139 2.40988 46.3786 2.05193 45.6274 2.05193C44.241 2.05193 43.3486 3.151 43.3486 4.8853C43.3486 6.62465 44.2309 7.72372 45.6274 7.72372ZM45.935 3.02496C46.8424 3.02496 47.4122 3.7459 47.4122 4.89035C47.4122 6.03983 46.8475 6.75069 45.935 6.75069C45.0174 6.75069 44.4679 6.04991 44.4679 4.8853C44.4679 3.73078 45.0224 3.02496 45.935 3.02496Z" fill="white"/>
<path d="M55.5049 7.73885C57.1081 7.73885 58.0913 6.66499 58.0913 4.8853C58.0913 3.1157 57.1031 2.0368 55.5049 2.0368C53.9017 2.0368 52.9135 3.1157 52.9135 4.8853C52.9135 6.66499 53.8966 7.73885 55.5049 7.73885ZM55.5049 6.7759C54.5621 6.7759 54.0328 6.0852 54.0328 4.8853C54.0328 3.69549 54.5621 2.99975 55.5049 2.99975C56.4427 2.99975 56.9771 3.69549 56.9771 4.8853C56.9771 6.08016 56.4427 6.7759 55.5049 6.7759Z" fill="white"/>
<path d="M59.5261 7.63297H60.61V4.42148C60.61 3.56441 61.1192 3.03 61.9209 3.03C62.7225 3.03 63.1056 3.46862 63.1056 4.35089V7.63297H64.1896V4.07865C64.1896 2.77288 63.514 2.0368 62.2889 2.0368C61.4621 2.0368 60.9176 2.40484 60.6504 3.01487H60.5697V2.14268H59.5261V7.63297Z" fill="white"/>
<path d="M69.1818 0.776405V2.16788H68.3096V3.08041H69.1818V6.18099C69.1818 7.23973 69.6607 7.66322 70.8656 7.66322C71.0774 7.66322 71.2791 7.63801 71.4555 7.60776V6.70532C71.3043 6.72044 71.2085 6.73053 71.0421 6.73053C70.5027 6.73053 70.2657 6.47845 70.2657 5.90371V3.08041H71.4555V2.16788H70.2657V0.776405H69.1818Z" fill="white"/>
<path d="M72.9105 7.63297H73.9945V4.42652C73.9945 3.59466 74.4885 3.03504 75.3759 3.03504C76.1422 3.03504 76.5505 3.4787 76.5505 4.35594V7.63297H77.6345V4.08873C77.6345 2.78296 76.9135 2.04185 75.7439 2.04185C74.9171 2.04185 74.3373 2.40988 74.0701 3.02496H73.9844V0H72.9105V7.63297Z" fill="white"/>
<path d="M81.5447 2.95942C82.3464 2.95942 82.8707 3.51903 82.8959 4.38114H80.123C80.1835 3.52407 80.7431 2.95942 81.5447 2.95942ZM82.8909 6.15074C82.6892 6.57928 82.2405 6.81623 81.5851 6.81623C80.7179 6.81623 80.1583 6.2062 80.123 5.24326V5.18276H84V4.80464C84 3.08041 83.0774 2.0368 81.5498 2.0368C80.002 2.0368 79.0189 3.151 79.0189 4.90547C79.0189 6.65994 79.9819 7.73885 81.5548 7.73885C82.8102 7.73885 83.6874 7.13385 83.9345 6.15074H82.8909Z" fill="white"/>
</svg>
