<svg width="22" height="22" viewBox="0 0 22 22" fill="none" xmlns="http://www.w3.org/2000/svg">
<g clip-path="url(#clip0_61_1263)">
<path d="M11.2422 8.56823L9.74609 9.36374C9.25031 9.62735 9.0621 10.243 9.32571 10.7387C9.58932 11.2345 10.2049 11.4227 10.7007 11.1591L11.2992 10.8409C11.7949 10.5773 12.4105 10.7655 12.6742 11.2613C12.9378 11.7571 12.7496 12.3727 12.2538 12.6363L10.7576 13.4318M9.72711 8.60618L10.0453 9.20464M11.9545 12.7954L12.2728 13.3938M14.5907 9.09078L14.5967 9.0876M7.40919 12.9092L7.41518 12.9061M3.80619 11.9079L6.22455 16.4562C6.58097 17.1265 6.75918 17.4617 7.02577 17.6484C7.26027 17.8126 7.54074 17.8983 7.82696 17.8933C8.15236 17.8876 8.48753 17.7094 9.15786 17.353L17.2969 13.0254C17.9672 12.669 18.3024 12.4908 18.489 12.2242C18.6532 11.9897 18.739 11.7092 18.734 11.423C18.7283 11.0976 18.5501 10.7624 18.1937 10.0921L15.7753 5.54383C15.4189 4.87349 15.2407 4.53832 14.9741 4.35166C14.7396 4.18746 14.4591 4.10171 14.1729 4.10671C13.8475 4.11239 13.5123 4.2906 12.842 4.64702L4.70299 8.97461C4.03266 9.33103 3.69749 9.50924 3.51082 9.77583C3.34663 10.0103 3.26088 10.2908 3.26588 10.577C3.27156 10.9024 3.44977 11.2376 3.80619 11.9079ZM14.8899 8.93168C14.9778 9.09694 14.915 9.30214 14.7498 9.39001C14.5845 9.47788 14.3793 9.41514 14.2914 9.24988C14.2036 9.08462 14.2663 8.87942 14.4316 8.79155C14.5968 8.70368 14.802 8.76642 14.8899 8.93168ZM7.70842 12.7501C7.79629 12.9154 7.73356 13.1206 7.5683 13.2085C7.40304 13.2963 7.19784 13.2336 7.10997 13.0683C7.0221 12.9031 7.08483 12.6979 7.25009 12.61C7.41535 12.5221 7.62055 12.5849 7.70842 12.7501Z" stroke="#3A86FF" stroke-width="1.30704" stroke-linecap="round" stroke-linejoin="round"/>
</g>
<defs>
<clipPath id="clip0_61_1263">
<rect width="15.6845" height="15.6845" fill="white" transform="translate(0 7.63701) scale(1.03714) rotate(-28)"/>
</clipPath>
</defs>
</svg>
