<svg width="101" height="21" viewBox="0 0 101 21" fill="none" xmlns="http://www.w3.org/2000/svg">
<path d="M78.5046 15.4314H80.7277V0.53743H78.5046V15.4314ZM98.5279 5.90287L95.9796 12.36H95.9033L93.2585 5.90287H90.8639L94.8311 14.9275L92.5687 19.9479H94.8871L101 5.90287H98.5279ZM85.9197 13.7398C85.193 13.7398 84.1767 13.3754 84.1767 12.4749C84.1767 11.3254 85.442 10.8847 86.5332 10.8847C87.5102 10.8847 87.9712 11.0951 88.5645 11.3827C88.3918 12.7625 87.204 13.7398 85.9197 13.7398ZM86.1889 5.57703C84.5794 5.57703 82.9127 6.28625 82.2229 7.85743L84.1958 8.68114C84.6175 7.85743 85.4026 7.58937 86.2271 7.58937C87.3767 7.58937 88.5455 8.27857 88.5645 9.50533V9.65842C88.1619 9.42848 87.2993 9.0837 86.2461 9.0837C84.1183 9.0837 81.9536 10.2522 81.9536 12.4367C81.9536 14.4295 83.6978 15.7134 85.6516 15.7134C87.1456 15.7134 87.9712 15.0428 88.4871 14.2569H88.5645V15.4072H90.7114V9.69654C90.7114 7.0523 88.7361 5.57703 86.1889 5.57703ZM72.4501 7.71589H69.2882V2.61077H72.4501C74.1121 2.61077 75.0556 3.98644 75.0556 5.16327C75.0556 6.31747 74.1121 7.71589 72.4501 7.71589ZM72.3929 0.53743H67.0661V15.4314H69.2882V9.78875H72.3929C74.8567 9.78875 77.2787 8.00539 77.2787 5.16327C77.2787 2.32174 74.8567 0.53743 72.3929 0.53743ZM43.3457 13.7425C41.8099 13.7425 40.5246 12.4562 40.5246 10.6911C40.5246 8.90547 41.8099 7.60093 43.3457 7.60093C44.862 7.60093 46.0519 8.90547 46.0519 10.6911C46.0519 12.4562 44.862 13.7425 43.3457 13.7425ZM45.8983 6.73683H45.8215C45.3227 6.14198 44.3626 5.60455 43.154 5.60455C40.62 5.60455 38.2978 7.83134 38.2978 10.6911C38.2978 13.5313 40.62 15.7386 43.154 15.7386C44.3626 15.7386 45.3227 15.201 45.8215 14.5872H45.8983V15.316C45.8983 17.2552 44.862 18.2912 43.1922 18.2912C41.8299 18.2912 40.9854 17.3125 40.6395 16.4874L38.7013 17.2934C39.2574 18.6365 40.735 20.2876 43.1922 20.2876C45.8029 20.2876 48.0102 18.7519 48.0102 15.0088V5.91169H45.8983V6.73683ZM49.546 15.4314H51.7714V0.53743H49.546V15.4314ZM55.0538 10.518C54.9965 8.56009 56.5709 7.56233 57.7027 7.56233C58.5859 7.56233 59.3337 8.00396 59.5842 8.63694L55.0538 10.518ZM61.9632 8.82863C61.5411 7.69683 60.2553 5.60455 57.6258 5.60455C55.015 5.60455 52.8464 7.65823 52.8464 10.6716C52.8464 13.5122 54.9965 15.7386 57.8748 15.7386C60.197 15.7386 61.5411 14.3187 62.0981 13.4931L60.3706 12.3413C59.7946 13.1859 59.008 13.7425 57.8748 13.7425C56.743 13.7425 55.9366 13.2242 55.419 12.2069L62.1935 9.40477L61.9632 8.82863ZM7.98501 7.15929V9.30887H13.1287C12.9752 10.518 12.5721 11.4008 11.9579 12.0151C11.2091 12.7634 10.0382 13.589 7.98501 13.589C4.818 13.589 2.34223 11.0363 2.34223 7.86946C2.34223 4.70257 4.818 2.14959 7.98501 2.14959C9.69331 2.14959 10.9406 2.82152 11.862 3.68526L13.3787 2.16865C12.0924 0.940469 10.3844 5.75189e-06 7.98501 5.75189e-06C3.64665 5.75189e-06 0 3.53169 0 7.86946C0 12.2069 3.64665 15.7386 7.98501 15.7386C10.3263 15.7386 12.0924 14.9707 13.4741 13.5313C14.8945 12.111 15.3361 10.1149 15.3361 8.50243C15.3361 8.00397 15.2974 7.54326 15.2207 7.15929H7.98501ZM21.184 13.7425C19.6483 13.7425 18.3238 12.4758 18.3238 10.6716C18.3238 8.84817 19.6483 7.60093 21.184 7.60093C22.7192 7.60093 24.0437 8.84817 24.0437 10.6716C24.0437 12.4758 22.7192 13.7425 21.184 13.7425ZM21.184 5.60455C18.381 5.60455 16.0974 7.73495 16.0974 10.6716C16.0974 13.589 18.381 15.7386 21.184 15.7386C23.986 15.7386 26.2701 13.589 26.2701 10.6716C26.2701 7.73495 23.986 5.60455 21.184 5.60455ZM32.279 13.7425C30.7443 13.7425 29.4194 12.4758 29.4194 10.6716C29.4194 8.84817 30.7443 7.60093 32.279 7.60093C33.8148 7.60093 35.1388 8.84817 35.1388 10.6716C35.1388 12.4758 33.8148 13.7425 32.279 13.7425ZM32.279 5.60455C29.477 5.60455 27.1934 7.73495 27.1934 10.6716C27.1934 13.589 29.477 15.7386 32.279 15.7386C35.0821 15.7386 37.3657 13.589 37.3657 10.6716C37.3657 7.73495 35.0821 5.60455 32.279 5.60455Z" fill="white"/>
</svg>
