<svg width="179" height="177" viewBox="0 0 179 177" fill="none" xmlns="http://www.w3.org/2000/svg">
<g clip-path="url(#clip0_64_1423)">
<path d="M100.692 109.43C101.311 109.564 101.715 109.674 102.118 109.784C105.898 111.185 109.723 112.57 113.503 113.971C114.576 114.352 115.603 114.75 116.664 115.238C117.288 115.526 117.9 115.921 118.467 116.334C119.775 117.353 119.934 118.485 119.011 119.913C118.673 120.401 118.319 120.842 117.901 121.255C115.734 123.661 113.374 125.827 110.856 127.844C110.496 128.132 110.136 128.42 109.702 128.788C109.985 128.994 110.206 129.171 110.473 129.332C118.108 133.039 125.364 137.404 132.781 141.502C133.11 141.692 133.438 141.881 133.784 142.116C134.243 142.516 134.428 143.018 134.231 143.608C134.081 144.182 133.646 144.549 133.066 144.66C132.622 144.72 132.144 144.689 131.667 144.658C130.803 144.563 129.877 144.439 128.996 144.298C128.564 144.25 128.132 144.202 127.746 144.138C125.689 143.757 123.633 143.377 121.559 142.951C120.213 142.672 118.805 142.363 117.499 141.913C110.772 139.683 104.09 137.436 97.5766 134.662C94.3653 133.258 91.027 132.211 87.7462 131.04C87.4342 130.896 87.0935 130.815 86.7814 130.671C85.7949 130.103 85.6983 128.999 86.6288 128.293C86.9142 128.084 87.2164 127.921 87.5355 127.803C89.6609 126.967 91.7863 126.13 93.9285 125.34C94.2931 125.205 94.6122 125.087 95.2047 124.869C93.6853 123.979 92.3987 123.16 91.0378 122.419C89.2856 121.46 87.5502 120.547 85.798 119.588C85.4068 119.37 85.0709 119.442 84.7063 119.577C77.9871 122.42 70.9841 124.073 63.7695 124.871C56.3101 125.708 49.0606 124.448 42.0454 121.859C37.8454 120.302 34.6356 117.499 32.1979 113.841C31.5039 112.803 31.0208 111.634 30.4635 110.545C27.355 104.649 26.3865 98.3779 27.0687 91.8078C27.6295 86.7328 28.9055 81.9115 30.7213 77.1499C33.3564 70.1179 36.9611 63.6084 41.1275 57.3576C48.0507 46.9301 56.0663 37.4977 65.6951 29.4896C70.8009 25.2226 76.2166 21.5145 82.1966 18.6339C89.3568 15.1623 96.8802 12.955 104.894 12.6381C112.863 12.3381 119.89 14.8196 125.971 19.929C129.555 22.9046 132.556 26.4059 134.793 30.5004C137.817 36.1684 138.917 42.236 138.338 48.6644C137.9 53.2282 136.779 57.6295 135.364 61.9326C129.626 79.6393 119.456 94.3206 104.98 106.034C103.856 106.915 102.748 107.842 101.623 108.724C101.395 108.808 101.201 108.983 100.692 109.43Z" fill="#BBD4FC"/>
<path d="M40.5883 42.8484C40.3631 43.5012 40.2243 43.9668 40.023 44.4036C38.5852 47.5238 37.1643 50.6895 35.681 53.8265C33.3182 58.79 30.8138 63.6505 28.5134 68.6428C25.7361 74.5879 23.8444 80.8276 22.9462 87.3739C22.0143 93.8288 22.3734 100.273 24.388 106.573C25.8762 111.306 28.1224 115.708 31.3496 119.54C32.1805 120.528 33.1936 121.449 34.1443 122.341C34.795 122.981 35.4288 123.576 36.0339 124.233C36.5429 124.77 36.5288 125.293 36.2195 125.718C35.8647 126.16 35.3129 126.208 34.6552 125.83C34.3887 125.669 34.1223 125.508 33.8846 125.285C30.1903 122.713 27.484 119.31 25.2861 115.46C20.1073 106.341 18.7647 96.5302 20.2678 86.291C21.1518 80.2678 22.8591 74.5105 25.2815 69.0071C28.3773 61.9604 32.0347 55.1725 35.8337 48.4876C36.7229 46.9682 37.7706 45.5975 38.8015 44.1812C39.1683 43.6315 39.6599 43.1393 40.5883 42.8484Z" fill="#BBD4FC"/>
<path d="M141.68 28.1135C143.536 33.2808 144.168 38.6408 144.094 44.054C144.019 50.8659 142.893 57.4963 140.546 63.9042C139.583 66.4866 138.512 69.0571 137.469 71.5652C137.314 71.9852 137.067 72.4388 136.832 72.7845C136.408 73.459 135.923 73.6896 135.441 73.5052C134.941 73.2751 134.756 72.7738 134.993 72.013C135.075 71.6722 135.219 71.3602 135.362 71.0482C136.424 68.1706 137.53 65.2762 138.483 62.3867C141.228 53.9677 142.075 45.3174 140.841 36.5025C140.089 31.2386 138.135 26.3665 135.303 21.9221C133.718 19.4516 131.505 17.5238 129.308 15.6416C126.715 13.3877 123.888 11.4795 120.796 9.97938C120.03 9.58874 119.31 9.18127 118.573 8.72822C118.245 8.53887 117.944 8.28711 117.644 8.03535C117.328 7.73802 116.919 7.47433 117.149 6.9751C117.351 6.53828 117.828 6.56918 118.169 6.65055C119.067 6.83715 119.902 6.995 120.742 7.30641C125.141 8.84176 129.001 11.3012 132.345 14.4688C134.563 16.5502 136.89 18.6435 138.36 21.3635C139.491 23.5871 140.532 25.8444 141.68 28.1135Z" fill="#BBD4FC"/>
</g>
<defs>
<clipPath id="clip0_64_1423">
<rect width="140" height="136.125" fill="white" transform="translate(0 48.6221) scale(1.00294) rotate(-20.2602)"/>
</clipPath>
</defs>
</svg>
