<svg width="28" height="31" viewBox="0 0 28 31" fill="none" xmlns="http://www.w3.org/2000/svg">
<path d="M12.95 14.8048L0.118179 28.4242C0.118662 28.427 0.119626 28.4294 0.120108 28.4322C0.513625 29.911 1.86436 31 3.46748 31C4.10832 31 4.70998 30.8267 5.22595 30.5226L5.26693 30.4986L19.7108 22.164L12.95 14.8048Z" fill="#EA4335"/>
<path d="M25.932 12.4857L25.9197 12.4773L19.6839 8.86232L12.6585 15.1138L19.7084 22.1626L25.9112 18.5836C26.9987 17.9965 27.737 16.8501 27.737 15.528C27.737 14.2155 27.0086 13.0747 25.932 12.4857Z" fill="#FBBC04"/>
<path d="M0.117682 2.57501C0.0405453 2.85945 0 3.15739 0 3.46678V27.5329C0 27.8418 0.0400629 28.1407 0.118164 28.4241L13.3916 15.1531L0.117682 2.57501Z" fill="#4285F4"/>
<path d="M13.0446 15.4999L19.6863 8.86009L5.25884 0.495342C4.73443 0.18125 4.1224 -1.93966e-05 3.46746 -1.93966e-05C1.86435 -1.93966e-05 0.511803 1.09086 0.118165 2.57153C0.117683 2.57297 0.117683 2.57394 0.117683 2.57526L13.0446 15.4999Z" fill="#34A853"/>
</svg>
