<svg width="536" height="536" viewBox="0 0 536 536" fill="none" xmlns="http://www.w3.org/2000/svg">
<path d="M370.187 165.813C423.627 219.254 456.945 282.668 467.629 341.976C478.314 401.286 466.361 456.439 429.34 493.459C392.32 530.48 337.167 542.433 277.857 531.748C218.549 521.064 155.134 487.746 101.694 434.306C48.2534 380.865 14.9359 317.451 4.25155 258.143C-6.43326 198.833 5.52012 143.68 42.5405 106.66C79.5609 69.6394 134.713 57.686 194.024 68.3708C253.332 79.0552 316.746 112.373 370.187 165.813Z" stroke="black"/>
<path d="M402.246 133.754C455.687 187.194 489.004 250.609 499.689 309.917C510.374 369.227 498.42 424.379 461.4 461.4C424.379 498.42 369.227 510.374 309.917 499.689C250.609 489.004 187.194 455.687 133.754 402.246C80.3131 348.806 46.9956 285.391 36.3112 226.083C25.6264 166.773 37.5797 111.621 74.6001 74.6001C111.621 37.5797 166.773 25.6264 226.083 36.3111C285.391 46.9956 348.806 80.313 402.246 133.754Z" stroke="black"/>
<path d="M434.306 101.694C487.746 155.134 521.064 218.549 531.748 277.857C542.433 337.167 530.48 392.32 493.459 429.34C456.439 466.361 401.286 478.314 341.976 467.629C282.668 456.945 219.254 423.627 165.813 370.187C112.373 316.746 79.0552 253.332 68.3708 194.024C57.686 134.713 69.6394 79.5609 106.66 42.5405C143.68 5.52011 198.833 -6.43327 258.143 4.25152C317.451 14.9359 380.865 48.2534 434.306 101.694Z" stroke="black"/>
</svg>
