<svg width="47" height="8" viewBox="0 0 47 8" fill="none" xmlns="http://www.w3.org/2000/svg">
<path d="M3.88193 7.80528C2.80328 7.80528 1.87549 7.42574 1.12745 6.67783C0.379041 5.92942 0 4.99232 0 3.90268C0 2.81303 0.379229 1.8776 1.12745 1.12752C1.87549 0.37948 2.80329 6.87353e-05 3.88193 6.87353e-05C4.43145 6.87353e-05 4.94433 0.0949839 5.43447 0.292624C5.92478 0.490286 6.32592 0.764677 6.64181 1.12376L6.7163 1.20859L5.87482 2.04983L5.7907 1.94644C5.58124 1.68904 5.31479 1.48907 4.97719 1.34371C4.64081 1.19871 4.27238 1.13175 3.88193 1.13175C3.12219 1.13175 2.49181 1.38975 1.9654 1.91425C1.96528 1.91437 1.96504 1.91436 1.96492 1.91449C1.45048 2.44957 1.19183 3.10103 1.19183 3.90268C1.19183 4.70495 1.45079 5.35656 1.96586 5.89182C2.49227 6.41609 3.1226 6.67549 3.88192 6.67549C4.57739 6.67549 5.15259 6.48135 5.60482 6.09696H5.60506C6.02604 5.73924 6.27869 5.25582 6.36805 4.63959H3.76161V3.53047H7.49456L7.51054 3.63198C7.54112 3.82695 7.56271 4.01516 7.56271 4.19594C7.56271 5.23083 7.2472 6.07561 6.62818 6.69711C5.9294 7.43787 5.01042 7.80529 3.88193 7.80529L3.88193 7.80528ZM36.296 7.80528C35.2157 7.80528 34.2988 7.42556 33.5604 6.67783C33.5603 6.67775 33.5602 6.67771 33.5601 6.67759C33.56 6.67751 33.56 6.67747 33.5599 6.67735C32.8204 5.93768 32.4536 5.00037 32.4536 3.90267C32.4536 2.80496 32.8204 1.86765 33.5599 1.12798C33.5599 1.1279 33.56 1.12786 33.5601 1.12774L33.5604 1.1275C34.2988 0.379641 35.2158 4.6953e-05 36.296 4.6953e-05C37.3742 4.6953e-05 38.2915 0.379736 39.0298 1.13878C39.7695 1.87833 40.1366 2.81386 40.1366 3.90265C40.1366 5.00036 39.7697 5.93767 39.0303 6.67734L39.0301 6.67758C38.2912 7.42585 37.3654 7.80527 36.296 7.80527L36.296 7.80528ZM8.63095 7.64362V0.161738H8.75126H13.0994V1.29342H9.80211V3.34812H12.7761V4.45724H9.80211V6.51381H13.0994V7.64362H8.63095ZM15.8341 7.64362V1.29342H13.8114V0.161738H19.028V1.29342H18.9077H17.0053V7.64362H15.8341ZM22.362 7.64362V0.161738H23.5331V0.282049V7.64362H22.362ZM26.4812 7.64362V1.29342H24.4585V0.161738H29.6751V1.29342H29.5548H27.6524V7.64362H26.4812ZM41.1762 7.64362V0.161738H42.4968L45.8578 5.54239L45.8288 4.52092V0.161738H47V7.64362H45.8411L42.3184 1.99108L42.3473 3.01185V3.0135V7.64362H41.1762ZM36.296 6.67548C37.0558 6.67548 37.676 6.41636 38.1815 5.89275L38.1823 5.89179L38.183 5.89107C38.6958 5.37818 38.9467 4.7179 38.9467 3.90264C38.9467 3.08936 38.6957 2.42687 38.183 1.91421L38.1823 1.91349L38.1815 1.91276C37.6761 1.38925 37.056 1.13168 36.296 1.13168C35.5348 1.13168 34.9148 1.3888 34.3997 1.91229L34.3992 1.91277C33.896 2.43788 33.6454 3.08959 33.6454 3.90261C33.6454 4.71762 33.8959 5.36725 34.3992 5.89246L34.3997 5.89294C34.9149 6.41652 35.535 6.67543 36.296 6.67543V6.67548Z" fill="white"/>
</svg>
