<svg width="144" height="30" viewBox="0 0 144 30" fill="none" xmlns="http://www.w3.org/2000/svg">
<g opacity="0.5">
<circle cx="15" cy="15" r="15" fill="#422F15"/>
<path fill-rule="evenodd" clip-rule="evenodd" d="M25.5 4.28785V25.7121C22.7944 28.3645 19.0882 30 15 30C11.2777 30 7.87204 28.6441 5.25 26.3994V3.60062C5.82834 3.1055 6.4448 2.65362 7.09437 2.25H22.9056C23.8447 2.83348 24.7145 3.51781 25.5 4.28785Z" fill="#422F15"/>
<circle cx="53" cy="15" r="15" fill="#422F15"/>
<path fill-rule="evenodd" clip-rule="evenodd" d="M53 30C61.2843 30 68 23.2843 68 15C68 10.1819 65.7284 5.8944 62.1977 3.15002H43.8023C40.2716 5.8944 38 10.1819 38 15C38 23.2843 44.7157 30 53 30Z" fill="#422F15"/>
<circle cx="91" cy="15" r="15" fill="#422F15"/>
<path fill-rule="evenodd" clip-rule="evenodd" d="M80.65 3.86445V26.1356C83.3097 28.5375 86.834 30 90.7 30C95.6068 30 99.9633 27.644 102.7 24.0015V5.99856C101.897 4.92913 100.953 3.9706 99.8977 3.15002H81.5023C81.2093 3.37773 80.925 3.61607 80.65 3.86445Z" fill="#422F15"/>
<circle cx="129" cy="15" r="15" fill="#422F15"/>
<path fill-rule="evenodd" clip-rule="evenodd" d="M138.75 3.60083V26.3994C136.141 28.6333 132.756 29.9868 129.055 30H128.945C124.803 29.9853 121.056 28.2913 118.35 25.5632V4.437C119.109 3.67194 119.95 2.9882 120.858 2.40002H137.142C137.705 2.76469 138.242 3.16609 138.75 3.60083Z" fill="#422F15"/>
</g>
</svg>
