<svg width="22" height="27" viewBox="0 0 22 27" fill="none" xmlns="http://www.w3.org/2000/svg">
<path d="M18.3473 14.3585C18.3741 12.2743 19.4935 10.3021 21.2692 9.21039C20.149 7.61051 18.2726 6.59614 16.3205 6.53507C14.2384 6.31652 12.2199 7.78096 11.1589 7.78096C10.0774 7.78096 8.44381 6.55677 6.68472 6.59296C4.39182 6.66704 2.25426 7.97065 1.13872 9.97526C-1.25926 14.127 0.529417 20.2286 2.82648 23.5846C3.97575 25.2279 5.31891 27.0635 7.07641 26.9984C8.79624 26.9271 9.43856 25.9017 11.5145 25.9017C13.5712 25.9017 14.1739 26.9984 15.967 26.957C17.8125 26.927 18.9752 25.3064 20.0841 23.6475C20.9099 22.4766 21.5453 21.1825 21.9668 19.8131C19.7981 18.8958 18.3498 16.7133 18.3473 14.3585Z" fill="white"/>
<path d="M14.9603 4.32804C15.9665 3.12011 16.4622 1.56753 16.3422 0C14.8049 0.161461 13.3849 0.896178 12.3651 2.05776C11.3678 3.19268 10.8489 4.71795 10.947 6.22556C12.4848 6.2414 13.9966 5.5266 14.9603 4.32804Z" fill="white"/>
</svg>
