<svg width="74" height="46" viewBox="0 0 74 46" fill="none" xmlns="http://www.w3.org/2000/svg">
<g clip-path="url(#clip0_0_22)">
<path d="M30.5767 34.1137H24.8232L28.4184 11.8982H34.1718L30.5767 34.1137Z" fill="#F6F6F6" fill-opacity="0.65"/>
<path d="M19.9803 11.8982L14.493 27.1781L13.8425 23.8856L11.9089 13.8773C11.9089 13.8773 11.6724 11.8982 9.1771 11.8982H0.106435L0 12.2726C2.12334 12.8085 4.15311 13.6662 6.01952 14.8163L11.022 34.1137H17.0179L26.1713 11.8982H19.9803Z" fill="#F6F6F6" fill-opacity="0.65"/>
<path d="M65.2454 34.1134H70.5317L65.9254 11.8979H61.2955C60.735 11.8547 60.1754 11.9921 59.698 12.2903C59.2205 12.5885 58.8501 13.0319 58.6405 13.5561L50.0547 34.1134H56.0565L57.2391 30.815H64.5713L65.2454 34.1134ZM58.9125 26.2566L61.94 17.9362L63.637 26.2566H58.9125Z" fill="#F6F6F6" fill-opacity="0.65"/>
<path d="M50.5043 17.2411L51.3262 12.4866C49.665 11.8824 47.9182 11.5493 46.1523 11.5C43.2962 11.5 36.5139 12.754 36.5139 18.8576C36.5139 24.5987 44.4729 24.67 44.4729 27.6832C44.4729 30.6964 37.3359 30.1556 34.9765 28.2775L34.1191 33.2401C36.1769 34.1089 38.3919 34.538 40.6235 34.5C44.5498 34.5 50.4747 32.4556 50.4747 26.8928C50.4747 21.116 42.4448 20.5752 42.4448 18.0672C42.4448 15.5592 48.0444 15.8742 50.5043 17.2411Z" fill="#F6F6F6" fill-opacity="0.65"/>
<path d="M13.8425 23.8915L11.9089 13.8773C11.9089 13.8773 11.6724 11.8982 9.1771 11.8982H0.106436L0 12.2726C3.12384 13.0731 6.03856 14.543 8.5444 16.5814C10.9231 18.5038 12.7514 21.0264 13.8425 23.8915Z" fill="#F6F6F6" fill-opacity="0.65"/>
</g>
<defs>
<clipPath id="clip0_0_22">
<rect width="74" height="46" fill="white"/>
</clipPath>
</defs>
</svg>
