<svg width="91" height="19" viewBox="0 0 91 19" fill="none" xmlns="http://www.w3.org/2000/svg">
<path d="M56.8922 1.72457V4.49345H55.1566V6.30927H56.8922V12.4791C56.8922 14.5858 57.8453 15.4285 60.243 15.4285C60.6643 15.4285 61.0656 15.3784 61.4167 15.3182V13.5224C61.1158 13.5525 60.9252 13.5726 60.5941 13.5726C59.5206 13.5726 59.0491 13.071 59.0491 11.9273V6.30927H61.4167V4.49345H59.0491V1.72457H56.8922Z" fill="white"/>
<path d="M67.5247 15.579C70.7149 15.579 72.6712 13.4421 72.6712 9.90079C72.6712 6.3795 70.7049 4.23261 67.5247 4.23261C64.3345 4.23261 62.3682 6.3795 62.3682 9.90079C62.3682 13.4421 64.3245 15.579 67.5247 15.579ZM67.5247 13.6629C65.6487 13.6629 64.5953 12.2884 64.5953 9.90079C64.5953 7.5332 65.6487 6.14876 67.5247 6.14876C69.3907 6.14876 70.4541 7.5332 70.4541 9.90079C70.4541 12.2784 69.3907 13.6629 67.5247 13.6629Z" fill="white"/>
<path d="M74.345 15.3683H76.5019V8.91764C76.5019 7.38271 77.6556 6.3494 79.2908 6.3494C79.6721 6.3494 80.3141 6.41962 80.4947 6.47982V4.353C80.264 4.2928 79.8526 4.26271 79.5316 4.26271C78.107 4.26271 76.8932 5.04522 76.5822 6.11866H76.4216V4.44329H74.345V15.3683Z" fill="white"/>
<path d="M85.8503 6.0685C87.4454 6.0685 88.4887 7.18207 88.5389 8.89757H83.0212C83.1416 7.1921 84.2552 6.0685 85.8503 6.0685ZM88.5289 12.4189C88.1276 13.2716 87.2347 13.7431 85.9305 13.7431C84.205 13.7431 83.0914 12.5292 83.0212 10.6131V10.4927H90.7359V9.74027C90.7359 6.30927 88.9001 4.23261 85.8603 4.23261C82.7804 4.23261 80.8242 6.44972 80.8242 9.94092C80.8242 13.4321 82.7403 15.579 85.8703 15.579C88.3684 15.579 90.114 14.3751 90.6055 12.4189H88.5289Z" fill="white"/>
<path d="M42.7475 11.3339C42.9138 14.0166 45.1494 15.7323 48.4768 15.7323C52.0329 15.7323 54.2581 13.9334 54.2581 11.0635C54.2581 8.80715 52.9896 7.55938 49.9117 6.84192L48.2584 6.43639C46.3036 5.97888 45.5134 5.3654 45.5134 4.2944C45.5134 2.94265 46.7403 2.05881 48.5808 2.05881C50.3277 2.05881 51.5338 2.92185 51.7522 4.30479H54.019C53.8838 1.77807 51.6586 0 48.612 0C45.3366 0 43.153 1.77807 43.153 4.45037C43.153 6.65475 44.3904 7.96491 47.1043 8.59919L49.0383 9.0671C51.0243 9.53501 51.8978 10.2213 51.8978 11.3651C51.8978 12.696 50.5252 13.663 48.6536 13.663C46.6467 13.663 45.2534 12.7584 45.0558 11.3339H42.7475Z" fill="white"/>
<path d="M20.404 4.26271C18.9193 4.26271 17.6351 5.00509 16.973 6.24908H16.8125V4.44329H14.7358V19H16.8928V13.713H17.0633C17.6351 14.8667 18.8691 15.5489 20.4241 15.5489C23.1829 15.5489 24.9386 13.3719 24.9386 9.90079C24.9386 6.42966 23.1829 4.26271 20.404 4.26271ZM19.7921 13.6127C17.9863 13.6127 16.8526 12.1881 16.8526 9.91082C16.8526 7.62349 17.9863 6.19892 19.8021 6.19892C21.6279 6.19892 22.7215 7.59339 22.7215 9.90079C22.7215 12.2182 21.6279 13.6127 19.7921 13.6127Z" fill="white"/>
<path d="M32.486 4.26271C31.0012 4.26271 29.7171 5.00509 29.055 6.24908H28.8945V4.44329H26.8178V19H28.9747V13.713H29.1453C29.7171 14.8667 30.951 15.5489 32.506 15.5489C35.2649 15.5489 37.0205 13.3719 37.0205 9.90079C37.0205 6.42966 35.2649 4.26271 32.486 4.26271ZM31.874 13.6127C30.0682 13.6127 28.9346 12.1881 28.9346 9.91082C28.9346 7.62349 30.0682 6.19892 31.884 6.19892C33.7099 6.19892 34.8034 7.59339 34.8034 9.90079C34.8034 12.2182 33.7099 13.6127 31.874 13.6127Z" fill="white"/>
<path d="M10.866 15.3683H13.3407L7.92332 0.363932H5.41739L0 15.3683H2.39155L3.77449 11.3859H9.49342L10.866 15.3683ZM6.55077 3.08822H6.72754L8.90073 9.43103H4.36718L6.55077 3.08822Z" fill="white"/>
</svg>
